<svg xmlns="http://www.w3.org/2000/svg" fill="none" viewBox="0.27 0.02 283.08 27.96">
<path d="M223.439 5.50336H221.768L221.759 12.4647H218.37H214.981L214.971 5.50336H213.301C213.267 5.50336 213.238 5.49854 213.204 5.49854L210.66 5.50336V22.033L214.976 22.0282L214.986 16.6647L218.375 16.6599L221.764 16.6647L221.773 22.0282L226.089 22.033V5.50336L223.545 5.49854C223.502 5.50336 223.468 5.50336 223.439 5.50336Z" fill="#FF7300"/>
<path d="M236.884 5.18481C231.81 5.18481 228.006 8.70413 228.006 13.7345C228.006 18.7648 231.81 22.2841 236.884 22.2841C241.958 22.2841 245.738 18.7648 245.738 13.7345C245.733 8.70413 241.953 5.18481 236.884 5.18481ZM241.75 14.0241C241.678 15.1779 241.214 16.2207 240.476 17.0221C240.384 17.109 240.297 17.2055 240.21 17.2924C238.656 18.731 236.193 19.209 233.741 17.6014C233.422 17.3938 233.147 17.1138 232.944 16.7952C230.468 12.9138 233.2 8.85378 236.889 8.85378C239.491 8.85378 241.6 10.8814 241.755 13.4352V14.0241H241.75Z" fill="#FF7300"/>
<path d="M275.075 18.3884V15.6656H279.183H279.569C280.347 15.5739 280.955 14.9366 281.003 14.1497V13.9566V11.9339H275.075V9.21111H283.277V5.51318H270.522V22.0911H270.595H283.349V18.3932H275.075V18.3884Z" fill="#FF7300"/>
<path d="M267.587 5.51782H263.483V5.52265H261.388L257.589 17.722L253.79 5.52265H251.714V5.51782H247.61V22.0813H251.714V16.7033V12.5806L254.842 22.0861H254.9H260.283H260.341L263.488 12.5178V20.3337C263.488 21.1206 264.406 22.0813 265.192 22.0813H267.592V16.7033V12.5033L267.587 5.51782Z" fill="#FF7300"/>
<path d="M189.361 20.4497L189.057 19.5228H182.395L181.574 22.0235H177.075L183.114 5.5083H188.313L194.377 22.0235H191.533C190.544 22.0235 189.67 21.3911 189.361 20.4497ZM185.716 9.22071L183.476 15.9311H187.975L185.716 9.22071Z" fill="#FF7300"/>
<path d="M196.873 22.0235V9.22071H192.374V5.5083H205.49V9.22071H201.015V22.0235H196.873Z" fill="#FF7300"/>
<path d="M163.012 5.34424C157.938 5.34424 154.134 8.86355 154.134 13.8939C154.134 18.9242 157.938 22.4436 163.012 22.4436C168.086 22.4436 171.866 18.9242 171.866 13.8939C171.866 8.86355 168.086 5.34424 163.012 5.34424ZM167.883 14.1835C167.811 15.3373 167.347 16.3801 166.609 17.1815C166.517 17.2684 166.43 17.3649 166.343 17.4518C165.469 18.2629 164.306 18.7698 163.017 18.7698C160.314 18.7698 158.122 16.5877 158.122 13.8939C158.122 11.2001 160.314 9.01803 163.017 9.01803C165.619 9.01803 167.729 11.0456 167.883 13.5994V14.1835Z" fill="#3478C1"/>
<path d="M144.503 12.6531V16.3945H148.235V17.6835C147.636 18.1807 146.396 18.678 145.174 18.678C142.461 18.678 140.549 16.5973 140.549 13.8938C140.549 11.1663 142.466 9.1097 145.174 9.1097C146.791 9.1097 148.061 10.1235 148.679 11.2145L152.261 9.35591C151.117 7.29936 148.877 5.33936 145.174 5.33936C140.226 5.33936 136.195 8.6366 136.195 13.889C136.195 19.1414 140.226 22.4387 145.174 22.4387C147.979 22.4387 150.219 21.4249 151.928 19.8076C151.962 19.7738 151.996 19.74 152.029 19.7063C152.309 19.4021 152.488 19.0063 152.512 18.5669V18.3449V12.6531H144.503Z" fill="#3478C1"/>
<path d="M131.995 5.6145H131.667C130.744 5.69657 130.02 6.44485 129.982 7.37657V7.5214V14.7097L123.267 5.6145H118.864V22.1442H123.141V12.5807L130.155 22.1442H134.283V5.6145H131.995Z" fill="#3478C1"/>
<path d="M110.986 5.6145H105.588L99.3462 22.1442H104.193L105.014 19.7642H111.555L111.985 21.0097L111.99 21.0242C112.26 21.6566 112.868 22.0959 113.592 22.1393H117.228L110.986 5.6145ZM106.187 16.0469L108.301 9.82416L110.392 16.0469H106.187Z" fill="#3478C1"/>
<path d="M90.8783 5.6145H83.9121V20.4111C83.97 21.3621 84.7425 22.1152 85.7031 22.1442H90.8976C96.0921 22.1442 99.8528 18.9966 99.8528 13.8648C99.8528 8.73795 96.0969 5.6145 90.8783 5.6145ZM90.8783 18.4269H88.1894V9.33174H90.9025C93.9342 9.33174 95.479 11.3159 95.479 13.8648C95.4742 16.3173 93.7845 18.4269 90.8783 18.4269Z" fill="#3478C1"/>
<path d="M78.6453 5.6145H78.4232C77.4915 5.66761 76.7481 6.40623 76.6853 7.33312V7.5745V14.7097L69.9701 5.6145H65.5674V22.1442H69.8446V12.5807L76.8639 22.1442H80.9915V5.6145H78.6453Z" fill="#3478C1"/>
<path d="M57.7903 5.6145H52.2675L46.0303 22.1442H51.0027L51.8234 19.7642H58.3648L58.7944 21.0097L58.7992 21.0242C59.0696 21.6566 59.6779 22.0959 60.402 22.1393H64.0372L57.7903 5.6145ZM52.9868 16.0469L55.1013 9.82416L57.1917 16.0469H52.9868Z" fill="#3478C1"/>
<path d="M47.6812 9.30278V5.6145H34.9653V22.1442H39.5033V16.3269H43.6019H43.9881C44.7653 16.2352 45.3688 15.6028 45.4171 14.8159V14.6228V12.6048H39.5033V9.30278H47.6812Z" fill="#3478C1"/>
<path d="M24.5137 7.86411L22.404 0.0192871L0.269531 5.92825L2.37919 13.7779V13.7827C3.70195 14.0531 4.82677 15.0379 5.20332 16.4283C5.57505 17.8186 5.09712 19.2331 4.08815 20.1262V20.131L6.19781 27.9807L28.3323 22.0717L26.2226 14.222C24.8902 13.9565 23.7606 12.9669 23.384 11.5717C23.0123 10.1814 23.495 8.75722 24.5137 7.86411Z" fill="#FF7300"/>
<path d="M16.2584 8.13923L9.66876 9.89647L10.9915 14.8206L17.5812 13.0634L18.9039 17.9875L12.3191 19.7447L13.6419 24.6689L7.05221 26.4261L5.45428 20.4689C6.41497 19.291 6.81566 17.6882 6.39083 16.1096C5.966 14.531 4.81221 13.3434 3.38807 12.8027L1.75635 6.7344L14.9308 3.21509L16.2584 8.13923Z" fill="#3478C1"/>
<path d="M16.2973 8.1972L9.71727 9.95444L11.04 14.8689L17.62 13.1117L18.9428 18.0262L12.3628 19.7834L13.6855 24.6979L7.10554 26.46L5.50761 20.5124C6.4683 19.3393 6.86899 17.7365 6.44416 16.1579C6.01934 14.5841 4.87037 13.3917 3.44623 12.8558L1.81934 6.79237L14.9745 3.28271L16.2973 8.1972Z" fill="white"/>
</svg>